<mxfile host="app.diagrams.net" agent="Mozilla/5.0 (Windows NT 10.0; Win64; x64) AppleWebKit/537.36 (KHTML, like Gecko) Chrome/138.0.0.0 Safari/537.36 Edg/138.0.0.0" version="28.0.4">
  <diagram id="oBd2LDtnD_55kbRZ2SkD" name="第 1 页">
    <mxGraphModel dx="1176" dy="655" grid="1" gridSize="10" guides="1" tooltips="1" connect="1" arrows="1" fold="1" page="1" pageScale="1" pageWidth="3300" pageHeight="4681" math="0" shadow="0">
      <root>
        <mxCell id="0" />
        <mxCell id="1" parent="0" />
        <mxCell id="jz0n9BMMyre-CqTkaLTM-45" value="Original Training Set" style="rounded=1;whiteSpace=wrap;html=1;fillColor=#d5e8d4;strokeColor=#82b366;glass=0;shadow=1;labelBackgroundColor=none;labelBorderColor=none;textShadow=0;labelPosition=center;verticalLabelPosition=top;align=center;verticalAlign=bottom;fontStyle=1" vertex="1" parent="1">
          <mxGeometry x="180" y="420" width="230" height="140" as="geometry" />
        </mxCell>
        <mxCell id="jz0n9BMMyre-CqTkaLTM-47" value="" style="shape=image;verticalLabelPosition=bottom;labelBackgroundColor=default;verticalAlign=top;aspect=fixed;imageAspect=0;image=data:image/jpeg,/9j/4AAQSkZJRgABAQAAAQABAAD/2wBDAAIBAQEBAQIBAQECAgICAgQDAgICAgUEBAMEBgUGBgYFBgYGBwkIBgcJBwYGCAsICQoKCgoKBggLDAsKDAkKCgr/2wBDAQICAgICAgUDAwUKBwYHCgoKCgoKCgoKCgoKCgoKCgoKCgoKCgoKCgoKCgoKCgoKCgoKCgoKCgoKCgoKCgoKCgr/wAARCACgAKADASIAAhEBAxEB/8QAHwAAAQUBAQEBAQEAAAAAAAAAAAECAwQFBgcICQoL/8QAtRAAAgEDAwIEAwUFBAQAAAF9AQIDAAQRBRIhMUEGE1FhByJxFDKBkaEII0KxwRVS0fAkM2JyggkKFhcYGRolJicoKSo0NTY3ODk6Q0RFRkdISUpTVFVWV1hZWmNkZWZnaGlqc3R1dnd4eXqDhIWGh4iJipKTlJWWl5iZmqKjpKWmp6ipqrKztLW2t7i5usLDxMXGx8jJytLT1NXW19jZ2uHi4+Tl5ufo6erx8vP09fb3+Pn6/8QAHwEAAwEBAQEBAQEBAQAAAAAAAAECAwQFBgcICQoL/8QAtREAAgECBAQDBAcFBAQAAQJ3AAECAxEEBSExBhJBUQdhcRMiMoEIFEKRobHBCSMzUvAVYnLRChYkNOEl8RcYGRomJygpKjU2Nzg5OkNERUZHSElKU1RVVldYWVpjZGVmZ2hpanN0dXZ3eHl6goOEhYaHiImKkpOUlZaXmJmaoqOkpaanqKmqsrO0tba3uLm6wsPExcbHyMnK0tPU1dbX2Nna4uPk5ebn6Onq8vP09fb3+Pn6/9oADAMBAAIRAxEAPwD8O18J217qjt/ZLMWkPVSR+Ne3eBfhR4Ue00O7l0yGCS5lG4wx7WJHrXt+ufCX4M/BjR9Fk1STUtXilsreW/K3SQsnmgHaoCHP51zl9p+gaH4mttM0V5FsI9XlFp5jAnyyMrn3r46vjpVoWi2j9E4NwmDq1cQqsU/c6rY+mPjF8U/Dfw0+EWh6NKVNxe2MI6/6qIIN0jf55r89vi/4gtPEPjS71W0uCySsQoRvvCvWv2rvixe6hr1vo9rOAljpa2uM9QFB4r5182/u9XE5leJN2FftW2X0Goc7PnM1rU1XkqeyZpaVYW2q3SCOMxXKPh2f09/Q16V8HPCUmt+KoY9MkYr5qEbR1wf8iuP8D2miize8tgzzoMzN1yxPBNfTH7C/hWTxH4/hNtpwESHcWK4Awfl/PrXVVcUnqcmXQdSaVtWz7h/Z5+HGn+GfBNtbiIK7kPO+Oc17To+kWpsooVB3Afw8kj2rkvDFhb6NYJZxYGEGWU/e4rrdH1HT4cW812kayoRK0jkIB6tj5mA9O9fCYmTlJn7HgKahTjTiR34kdjH558tePvDJ+uKkS1iuITGYXYFME47/AIVW1LxFagGx8OancTRbuX2iJD9FHOPrUaapqOkxK8FurgkZVp8459KeHVz1MRHlhYkg8Lpo0XmLZvhTnNS2GpzS6h9lW2K7Rkbh1rptJ1RdStJBqo8sFeBnNZ2l6YGv5rmYtknbGMdq9LlPDnW5Xy2F0XXLy3unSW18vI/j6Vyfx0+FPhLxHYS62lrD9pjTLLGuCa6m9jKS/KnP1rA8Rrb3dvJMbjY3lbSCvHX1rJ0UpXOarCNVbHwF+3ReX9j4Lm8GXEO6D+zphpcyqDkh9zI2c529sdBxXyn8GrVU1C+kCAsstqo+T7oya+7/ANsnwTL4i+HepokI+06cHurTZ82dowy8dcrn8q+L/hTYBdSnmiOFu9TtmCE4PBNepg406eHlGG7bf3nxmZU3/aEbo/W6/UWXwO+DdicLJJrWtOBk5wtvbD+tc1+0wEOm2UZAxs6Y61v+LLr7J4c+C/h7ydrk69NKXPyt8lrjAriP22dVvNC8D/2np1xsljtiUevKpxlGq79zmxtZww7kuh82/Gf9nz4e2D/D3Wo9FgWbxUuqSag6jHmGGfamfwrlNZ+AOjwt/wASwSwf7nSua8RfFn4ieJ4dNtdf8X3lzFoySLpUTOP9EEh3SbMAY3N1rU+Edh4/17xrptrL8RdR+xXjsZLfYrgKvoWzXp4eE3Pc+QoZ9QrS5Gn/AEzN8b2mseNINK0HRrbzb29jtPKTHzEBY8VW8c6AfDfxMTSbgASWus+VIB2IVM1zz+MPFSabofiTwst/Hqmn6duguLW3yMqqbcnp+FXfE/ibX9Z8cx+IfEpDTXF4ktwAuD5pRd3FJ0JUUl5n6NwDXoVcTiunuP8AM4v9uP4Y3qX+meLvDoTfdaSom2n+IDkflXlPw20ltWsi0tkZoYwUYsvU+w9a9n+M3xI1vxVqMPh29skS005dkUwbnLYJz271sfDrwRoFj4UkmhtFKPfO6TyDqMJXtYVyjhrHx2aQjLHT5drnGfC34M6jJqFrdSQzWumSHfcQM/8ArMHpnFfa/wCzF4Y8MeEtEN9ZRxxPLKTsA5CD+GvFPDGitf2cVhC26JMhQBtx7V7BoGlr4QsdPC3ryS3LGFYFPCHGc579/wAa5MbO8HE9rKYeyqKR9LaH4igljiYSAhwCSa3rxxLboLp9olOC3tXBaB4VurTw1Dc3MxWRFB6960LvUdSeTzb25MjRIOM8YxXys430R+nYJzpwUmeh6bY26xrNYbY48dhjP9c1ckSeQILUTOx6ExEg/U145rP7TN/oVl/ZXg3w5LfXgBDXEcm1I/YHufpXB2H7ZXxCsdcK6zoAkIl+eH7W64Xvywxn2rqw1Cryk4vNcPGXK9z6z0OaeGURSaQjKBncnynP0710bq5hDBNpx908GvDvA/7V3gPWYBe37yWsijL29zGQyn2boa7OL47+HtVUNo9yHjB6ivUp4edtTzp4ynUd0aOuQ3DamCFGB2zXI/EeHV9UsRb6POqtnDxr3ral8Ww6y7C0DsVUb2HPFc94tu9JstOad9Tk3lfnCT7aJUGjJ14JXPGPHennSp5dP1dgftERRlzlTkV8Q+HvDQsfi0dOtFBVNYRdi/w5lC19k/ECfRYrx9SOs4KBnWOSbeH46V8ofDzTp9b+IbeI5WXEviC2UDuQZ0NVQ9xSPlMyqqpXi4n3l4uuYrf9oX4beGop8tFoWoyuh/gyY+9J+3hFj4XyLgf8eYrO+Icqz/tw+B7cNwvha9yPxStr9u6NW+FrkdPsbfyrz/8Al6eNjv8Acpeh+eMSlXBA6E816l4T0ZdP+EMnjKOfy3gjuoVKdQWTP+e9eZQlS4Un+I5Fd/4ev5Z/A95oHnExNpU1x5WeCQRzivWw3uz0PzfKb/XYx8/8zgvAPi27i8I6faQRRon2VMgZ54FZPxd1NtNvn1DSohK0N3ETGRx9xK9l+Dv7Kthrvw+0bVbrxRMvn6dE/lxQg7eBXkP7THhK58HeK9X8IWk7ypBcRlXI+Y7kQ15GHzPCYzF+zpN3T/U/WeAcqzXLsTjK1ayi6UuXbumh3gX4ZeMf2oPifZ+FtAt0s1trMT6jcScRxRx8F3PbnivU2+DXw90xD4c8JfGS18QPp0p8+0itnijaQcFQ7DEn4V2n7KuiQn9lfWr/AMOoYdW1G6SwvLpRhxCFG1c9gSxr6Q8GfsffDDwd8Fd91IkCxwfadQvG4JfGS2favRx2NlhVpserlmSUcTR9pJXcj5H0BrXRNbSTU9PeGBGyYAvX2r1n4S6Nd+OPFQutTt2jSBg9vaqvCD1PvVe4n8FeM/AVz4o8D2yz2Ud2Vtb6dP3hCyFTuA9SufpXefBr+07lFFlarDEAAW8rkn61x1cTzwuzfCZc8Ni1TZ6bf+fFZi2U8Kcg/hXmvxa121/s06e1w8SSy/vHjzn6cV7Dp9rZ3Ufl3jvudcDYOc1n6h8ErXV7sXskLTIWBRSu3J9Dkf4V51KUXUSPs8fONGlZHiXhLw7Zm1EtnHfz3P8Ay6wRK2T75PSk134M+NNdV59R8G27RyZyTrUfnp7hA2f1NdP8aPh548FnfaZFqkulxNaSC0tdKfy55JP4TJJ12+wxXy9+z3+zn8Y9T+LF7ceLbvXbeOFpHgvZNTlXyxtAUZkGC+8Fsgnj6V9JhHGSsfA5ljI4eaU4vU9K8afBzxT4ItI5b9J1spG/cyyMWUn0yK6z4QLqOk6TJFaSNNG/c9iewNJ4f+JPxM8T/DG/+HfiHR7jV54JSkWoKh45xk17h8FPhLpXh7Sxouv2f72aBXAZeScdKxxNdYeyZ6ODoSxK03OX8U/Eu78FfDx4bWUwyHln/vH0r5M+JHxT+IvizV2js7ybyy3ypFIRu/Gvov8Abo0238H2emW8tqzWdwxEEa5w0gHC8da+MdS+Ifj/AFP4hJ4Jh0q00+D7QseZdOaZpQWxgfJtGOpyRkHjJzXqYSlTrUue587m2IqYet7Nux0OuJ4rTTpX1e42RmDcY5iWJPPGawPAzBPFml6LETayHVrNhLIflDecuCfYV6f4C8CeI/iBr9x8JPFWq/Z1tLpi18yF4wqHP7sk5wcj5SeDX0l4E+Df7PXgjRls9S8OaTqV0qDz7u7tVZpD3OGzxXn4ytRoNxauzhpc1V3b0OYM2o3P7cngi31HxXBrd3beEbv7Te2zjaX3ei4C16N+3XAp+FTn/qHtWh4Jvvhba69Fo/gnw9pNg2etjZxxn81GTUf7b+4fCViqbitg+F9favFpVfa1dEaYyilhuTufnM+h3dmyXrxgq56Bun19PxrsfDGnrJYXka4JbwldnAH+0ap+JfB3xc0LQ7fX/FHhiSz0y4bbG72flA5GRjPWuh+B9iureLJbCSXr4ZmQfiXr6CjSdOpq0fB18DhcBnFONGbl6q29z6V8Bfs+6V4R8O6JoWo+P5C2j2axOLb5Y58HO4jrXK/Fr9jX4a/EDxDqPjPXfiNqG+5xK1na26AEqgUDcc9hXyFq/wDwUq/aQt7Yyr8EWQP/AKvzrjLfl1rhNe/4Kq/tDmV4LrwrFZ5GGVom6V4OF4YxVKr7WGkvVH6XHiWMIuNOW+nyPqj9hzxXaXXxM8T/ALNFzPJAbgmfTBKcb3iP3frivq39pa68Qw/sttpNjPNG19KbRu2Axwa/K74O/tSeJbjx9pPx50/TVttX0rWRPOycB1GNy/iDX7FeA/EHhX4//DmDV/DN3Bf6XqyLPJp0rBljlPLADsc10ZrhqyknJaI+h4dxka2FdG/vL8jyn4VfA2z8H+AbvwtZaen2Oyso0SMnLvJyWkb1+bms34X60kMMltPfBZBMcJtxnmvU9SlvfDXijV/DEd4Ps8umERRSw7ZkkXHBPRlxnmvnW71CXwt40guLSTZE85D5OQQSea8qlNVItSPYxS9hiOdH0f4VvILm8jtrqYrn5sqa9X09tMfw/GbG4gMijCq7ZbI9u30rwPR9cje0ilCln/2e1ej+EdYsvIEAnwzkAHPOc1yO8ZHdKcMRDzLPxI8K+GvHwM+oa6tlOqkB84diPavPbn4CaJErXF18UpmRQdtvFGOfzr2eTw5o+s2n2PUtPinwcq0qA7f61Vj8A+GvDX+lLpNrGyjIl2g/qa93C4uEI6bnnVMrniNX0OI+FvwnjsUWTVbiU2cT7oY2YZc+pFei3mk2c10+tyKkaIu0gDGRXE+J/i5a6dqI0zQoA8oJQzlvlHtxUD/EHxBr8S2LQyMVb76EgVy47nxFTmasejgsDCgrrUyf2qPAlj4x0UTpHHLBaJlJGQHZ6kV84SfD6bw7cpq3/CBaTd3KMqJqlpCqzH3ORjcK+uzoGq3umPBqKFoXT5w/TFeCat8NdS03X500fxQ8VotwSI2XeQM9jmvbyutOlR9nI+W4kymnLFKrGzfyPlv/AIKEfEvxR8Afhno/iDwRdtp93f6k0M0lvyQPLZjnPXOBXxXqn7anx517KX/xB1FlY/dWcr/KvsH/AILMalpFh+z/AKDYQPm6/wCEnjETN95sQybzX57eCdM/te0ee4kY7JMdq9XD4ajOg6korc+DzCtUoYjliz7Z/wCCO3xL8Y+OP2uIrXxN4hvLlRpk52z3DvzjrzX6T/trx4+EEjH/AJ8Wr52/4Ji/s3fBjwh4D8J/GPw/oSx+J9Qs3W6uzcsS2Sc/Jnb09q+jv215Xl+EdyRGP3dg2PyrwalSnUxfuKxtUclg7yPnj9qwGT9nDw/Ln/lrZ4P/AGxNcF+y5YaTe+NLWMr/AKTLpU6Mf9n/ACa6L45a14h1L9nTSrLVLS0NvHLaGCWJ8tt8v+7k/wCe1cz+yA8E/wAZLWyz+8/sSQ8fU16FKC+sKx8djlfOKFvL9Tnfib8JNC+E2jI9/wCHtPMlwcRxQpkc/WvONSs/DeoQ7LnwtpqyMcgvECCK7L9sjVNRtbiO6mvJ5ntbYSQwNOCFJf8A2eK8j8EePdS12OabxBpAgdCvlry5KnvXA6+IcPdkfdxyqj9ZpdpJ/gfUvwS/Yd+DHxC+Htl4hu7VrO9vo33JbyKkSuDgcEd6q/BQ/F39in4uy2MOrNJ4d+1iOewMm5ChPyzL2UnNfHfjDWtWk8U3U1p4r1SCKIZS3huXVAQmema+tf2D/Alx8Vvgdfzag8009vfHYxmJIGwHHJreFKToNzkZxxX1THWw+lj678d/EDRPF+Net7gW13PA8TJnDF2PX9a8E8bWskscYs4szQty8vUc9a9Ri8M2T6dBfXCAXUEY2Y78dDXBeILnTrS9njc+c7EoVMnIrwIU1GR+gYnFrEUYSZ6B8KNZs9V8PQQxXSTyoAPM7sa7zS7ya1mheNgBGeffNfP3w+1iTw1rcZV9qklsN0HtXr+meJYdQdIMEswyeax9m3PQ1o4pUlZntOh+N4vsSxyuFKckjtiuI8X+Ptd8faq/hXw3q32a3BP2mcDJA9B6muF+Inji50TRTFFcOgbClEbl65nw3cX+n2Y1ea+ZDNJujiLYP5969KlSUfeZnic05p8t9Dd8YaX46+Hl/wD2x4YsTq9vHhU3sAyufUHrk14tqvx0/b6sfFk19rGh+Fbbw9EcG3aaRZ1HqWU9R6YxXvugeO7O6It7rUZJ4Ube5uFxg1R1DVdDvZ59Nl0yBrfUFw4yB361rHk5jDFZxi4U0qT0R5rYftc/E3VmGkabBPMzr++WCXegPru9K63wh4ivdR0V77UrvfO53S/N90+lTX+n+DPDbvBo9pZSJtI+WP5gfqK57S7+1sXmVAVVjxF79q9Gkqcad0j595niK9Vqb+8/Pf8A4K5fE6/8ZfF/SfhxZiR4NAsGmuQGyDPOQSMeoRV/76PrXhHwo8E+LLzQNRu4NAuTFbNvupPJIES8fMfQV9o/tQeD4tC+O2r2l66Su0cU5fYNx3Qhsfh0rhtGkWP4YePbaG34OixnIAAHzH+derDFRWHULGue8Luhk8c1lVvz8ulv5vO593f8E5DE/wAAvBChjnymDH05Ne2/tp2cNp8KLyRxkCwYn34rxn/gmxb5/Z98EsTn92+P++jXt/7cMBPwtu1x/wAwuX/0Gvmf+YmXqfJ492wlz4R8V/F7wzqPg2TQNP8AD+os91CqI0zRLDGy4zsAGT09af8AsZnb+0nZ7jj/AIkMv/s1eX+ZJ5ggLtgNxz0r139kvSZYfjnpuolAQ2izpHz958Ma9fCr/aYn55Qx86+Ywc+jt+Zw37XM8+tQzzJpMcSQ2ceTb/dXnv8AnXh3gttRE90dNimbEcYGJM9j6V7z+0xZJD4R1SZpDkWkBGPw9/6V4D4IuzBJNLDDC+Vj4kOQevoa5aEf9nZ+41F/teH9JGVry383iC7kv4pIyUYFWPP+r9fpX3R/wSXvIU+GupWXlxs0uqbW37s/c7DB/Uivz88bazeT+LHt5rZbdgwYiMEDHTvX0r+xp+3b8JP2WPA2o6L4r0681XV7q/MltYadEvCbfvGRjtUfmfau1wbwrsux8fNr+1avqfcPiaQWEBli4BkIGOg5rz7xJoGitcS67PalpmXLOvUH3zWt8O/HA+LPwb0r4jtCkJ1WFpvLQ5C5cjA9elUItUhFy+m3Eausny7WPWvmJ6VHE++oJywaRxsthGsf2qLVwpjbLDOB1962fC3j/V49RdNjLF5flrL8pB+n+e9cr438LokhtNRlSSMv8sU7EZ9Og5rW8FaTqMTraaZZF5Y3DBfmT9WxV06etzGWJcPdZ1PxT8RmbTYdMS3d718eVbFeCaXw9+yv438Y6FBrnjz4q6no21d0FnpdujLGOvzA5zXd/CL4Taj4m1qN/HqIhMoa2V1yR9DmvZtW8DIY/seniVDAFClN3H412WsjnwkHVq8zPjr4jfsd/GTVdP8As/gv9q/ULdj9yNbOJN36VxNt8Ef+Ch3w4iEHhv4yeHtYh/g/tSwy+PUYP9a+wfHPg/USsdrc6TLI/nL+8XYC2O2Vwa4bxv4ct9MtTJJ4c1YvGDmCGdgD79SQfpXfh2+yDH1Ix/5dv5HzLb+Pv2lfDurQab8VEsWNw4Q32mo0alu4IOSK9U8DavFqXirRdOuJTML/AFKGCd9+c7mwT9Kr/Gi0Pifwnp8tp4bkhlsLlZbojr8pzhiOe2K8Z/bP+M8vwa+DZ8S+DNTOk6u0kK6RLYSlJI5DySpHI28813xpuo9D5mvik8RqtEa/7esVrb/tV+I3t1HleRFsI6Y+zjFeH6U+qv4B8bw2kEPkf2LGbiSbOQM/w4PX868cuP21fib4y1htZ+JepPrt3JGiT311IFmkVV4yy8E49RXceCfj34PuPDHiHRLiWaGfXtMW2jVxkKR6n3qp4erGGx9lmfEmWZhwnDB0pv2iUNH5H6R/8Ezrfzf2e/CMpGdkkgz+Jr3b9uaHPwpujj/mGS9v9mvmb/gnR+0D8CvDHwV8NeENe+L3huwv7YuLy3vNVjiZW8w9d2OMV9Mftia1oPin4L3Gr+F9as9Ss5NMlxdafdLNH93+8hIrwHCaxEro+Ex+uCaR+XXAuwM/x/1r079ljV51/aP8KaY8DBTa3OHDfKfkbtXmsisbkAKfvnt7mvRv2bpbdf2lfBlmsgExspiozy3ySV6uGT+t0z8vwKf12F/5v8z174qfsep8X/CUsSfEWG1jksVhke1s/NxjucMuT+FfGvxb0D9nL9kbS7zw94Q+NOp+MPEkj/vLTS4EhtbU+k0pZssP7iAnsSKpfHr9u/4iePBdeE/AN3c6Ho0yeXcGKUrNdL33EdB7D9a+ZPEt5eRXrl5zIXJLOxzuHrXFl2VZnN82Knb+6rfj/wAA/Z8wzrC05qOG1a6jfiJ8XfEnjDU2vry7ZpZBsIUHlew55q1oNomieD7nW9SYyX86kAHrGvp7VkaJoSLcNe3RBJ5U9a1dQkI0eSJT8uw/LX08I04RUEj5r2kq1fnl1Z+p/wCwpqiap+yhoejzTlpNP8y0dc/dIbeP0aul1uwCytInOHNeH/8ABOf4lWwj1L4a3dwoku4o72xDt94qm1wPw2n86+itftAyFo1AfngV8dnFD6vms4+Z+qKPsqfKcfrFra6jEVukDOh3IWOQpHrWh4a+ImgaZerZl4bm5VCsm22O1298EcVneI7gtFIkY2nHU15P4xl1C3upP7OlcNj5Sp5oocrZ4uLptybR9R/C/wCMl+mq2/m6xFaRXM7blhPv0Xd0FfQEXxBspbGC/SL+HEkgQ8H3r8uG8YeJfCredp9k80omBcu/I9cEHP6V7x4F/bts4LGKzvt1osaJEbQcMx7kggGuqdB1F7pz4THewq+8j7Dk13wzrszRLEd0TZZyMDJ9K5rxj4jttFuVmt7tYWDYGVOHz79D9K8i0L9ozwf4h0qTVEuZhKyloUSQFSf7tcR4h+P1gb1ZtNvEuJGXy1tmQsx+bkcHj8qdPB1k9jox2e0akbG/+1H4l0XTtHW9h0iDdqAUXk0RCkgHqBnn3wPzr8w/26/jjL498T2Pgi0uvPsdHJk83zQd0jfw/wDAfxr6B/4KI/H/AMWQxW3wptJksru4jW8vjESJ7aL+BN3VSeePTFfDet2v2oyx3EvmzOxbz3boa+iweHlGN5Hw2LrqtWckYttJi4wOnvW7YXpth8vP0rnIncnY+QRwQRWvaShYtoP3PSvS2OQ6m31e7idJVnIXvzya6nw38UPGnhZvtegeK9QsVkXEwsrqSIN/vBThvxrg9JaS8XyUQsw6ADOa6bw/pr3KeQ0R+Yccd+1c86cJdCueXc73Qfjj4006VLg6p9qj/jW6Xdn8etel/Bv9orS9K+KugfEDU759EudNkVTcQhpEEeDnI5YZGc4BrxKw0+KCUQyDbuOME96t6dagTNG5woOAK5fq8ObmWjM3h8NKfNKOpz41GG8ty+5d6nhuxHpWVPbxX12sKplc53f0q/FHGlrtWP71x6e1MsSqanKApZUVO3AOa6rMoQadBDCAqDiq91axSadOjJn5cr+ArWk+zsNy2oweRzUUNpFKjx+Wx3A96hrU1hJI7/4P+PdW8JzaH4t0O88me0EZjlyeMYBB9jX6B/Bj48+Fvjf4UXUNMvxFq0KA3mnseR6sPVa/M/4e3QSxu9EkOGtbg7Qeu08123gv4i+J/hzr8Ov+HtQkgkhcHKNw4/u+9Vjcro5pQTXxLZ/ofsGDlTxWXwqeVj738SwyrclpYyGOepGK4y78NPe3BMuVzXG+BP2w/Cnjy1jt/GwWwvtozKmTHIenTqtd9YaxZ6kpk03Uop0PR1fcPzr5OpgMTgpe/H/I8/E0Zwkcxqngy009DdXkibRzskGc1wfxEutC1K3a0e1jSTbhWC4YV7Vd2VrqUQS+uC4PH1rjdX+HvhtdRe6neNIF7yHsK6sLTnKzPn8ZKNOTijzLwH4T8Y6cpTRtaunSZ8qkkpG3+grX+J3x28Cfsv8AhWbVra3i8ReMJAEgid98Fq/8Jc9eOuOp9qu+KfEvizxH4J8Q3HwL8Lz3ml+GdPefxL4vjXZYaYq4yglPEs5yAsaknnOMZr4p+KfiGfWNZttKjneVfN82Qlskc9/evp6GX8sOeZ46hCpRqVZP4enU0vHPi3xR8Q/EN34x8aak15quou0l1cuOrHnAH8IxwB2rjdX2W82Qnc9q6NIJigYRNjHXNY2sWwJLycuDwq1pHQ8Lcwbyw8xhexggPww9TVexumhuyO5OOO1bCFrv90wwv04Fc/q8f2G/KL060+UD0Dwbp7WzrIV+ZW7eldnNbizl3xLjBBjzXMeDm+1W1vNJIcSIOSPTiutnUNawzDuCGyfTH+Nc9mAl48Md15kfyhhvX2FLcTLHcGZAP3oDgCq9zKssUWeT83P4/wD16c//AB7wn2I/r/WrAwCdtnG54yXP8qh8PtdPbNdKnE8hIJHYcVH4lnNrokbpJlnVguPc4rSsIbjTbGG3jUbVQbtnagCVrqJnMc0S8d88mkQ2ofC2zkDvuFKt20q5kjjJ75XBqQPahQZI9vuDms3uBR8PRfZPGlxJayE/abcNtPcrXUzmaSPc6sMjnjpXO3qppdzBq8Z4WXaT04PWvQdFgtdU0/LruQqOa9nBLnhY/UOD6qxGWyov7LOQkaRZvNhZkP8AeDV96/8ABLT4C+BPir8FvEeu/EbQRftJqiR6dei7mgng2J83lywurDryCSp44r4m1PwHcyymSxvWVm5VZBuX/wCtX1n+wz+3f4M/ZU+E3/CsviJ8G9Z1QG9kuDrXhzUIXZg3QNDMUxj2c5qsZh5Swzio3N86w+PjhX7FXemx9Har+wx4M/tHfo/j7xvZwu3Cf2zaSge2ZLMt+ZNafhb/AIJ9/s86hqFvd/EO18SeKvKwTa+IvEJ+zNjs0NpHbhx7OWHtXKaf/wAFW/2RtaiaZLHx5byIcPDJ4VVivtlJmX9awPGf/BXnwVpED23wj+B3iDVLrB8q78S3cVlbg/3jHE0rt9Pl+tRlmW0Y6yjqfm2LwXEuLfLThI9K/wCCoupeFPhV/wAE7fFfhzQdOstJ02VLLTdP0zTbVILeISXEZaOOOMBU+SNjwBmvxJ8IaZeeL9budbaQ+VAxC5Pavp39t/8Aaz+PX7R+gyX3xa8XRGyim2aP4d0pfJs7R24LCPJLttyC7lm54IHFeDeA/D8nhnQ5raeMmSaVS5x7f/qq8zlySUSpZJmGUYJxq6t6yt+X5kh0W+HyKC/o2e1ZuraQxLedyP7q8/rXXv8A6hzjgqcVW+wQTktOu5Ryc8YHpXjuR55wEuk31xJshjIAHK46VH4s0iwh0xGlk/fswEIz1rvL+CxSJrjIiVR09a8+1prnWdeN5IpWNW2RRnoPer5kB2/gOELoQticmNQw+mcH+ldAspWwkjJxgbh/n8ayPAsSQRJHIcBhtk9hVu7lePdF0zkGpjuBJA32jTC2OY5CoJ/CpVJksicco4/UEf0FU9PU/ZXi24x83X/PrVq2k3JPCB/Bx+BH9M1dkBxviDdf6rp2j9MkF/puJroSlxDzFJuycjGa5vSw2oeM5bqTgW9uqp/vEV0Mts8ZzEx5J+eM1gBL5z7dtzGh+vFSJHDMy78r6gHgVEj70DbQ2e9SGJJAuMjHLYoAZq4hvreawRsptyre5rr/AIX3Rm8Jxu2CVGG59DXLX1vGYQ8Iwki9K2/AUz6b4auIxyftDgH0zzXpZdK1Wx9nwZiHSx84fzRN+711rWbDgsgPAFWE8W2HleYBggcqaxRDLegO0nDDPSlj8KT3G8m4IBXoGr33OzP0b2tVv3DV8I+L7DVbu/ktbbEUEsagD+JsHNXNQ1m4NsVs0SNvVhXKaC8XgixmtxZyO005kLAelWk8W2uottjLRSn+ErxWtH4UYVK84JxluZPi6xvdXvraC9l3x27G4l56AdK57QNX/tATIHBUXbAEHiuz8Rp9m8LalrrEFmhKr7etcV4Q06+0yzisdQa2MiRhnigTDRB/nCyHbhmw2cjPBAzxgeFm8/3h8bxVelhIx6y1ZszqUhWM8HlyD+VBjX7LuP8AEx/Kl1AYuNp7KB+lOlkTCRbfupmvKPz8p3Vhb3unul2owTge+P8AIrkta8P3Csl9YQlo0fBAFdlqH7qJFXoVz+dUZIVFukHZmJP+fwrN7gLokQgAZT1wQKu+Imih1CNohw4GfTP/AOuq4C2b2S5yZWbfx2FV9emaXYD1V+auAFvShiKSJsHMR/xqa2++cd1b/wBBqDTflkXJ74akvZDZ7iW+5WoH/9k=;" vertex="1" parent="1">
          <mxGeometry x="620" y="690" width="160" height="160" as="geometry" />
        </mxCell>
        <mxCell id="jz0n9BMMyre-CqTkaLTM-46" value="" style="shape=image;verticalLabelPosition=bottom;labelBackgroundColor=default;verticalAlign=top;aspect=fixed;imageAspect=0;image=data:image/jpeg,/9j/4AAQSkZJRgABAQAAAQABAAD/2wBDAAIBAQEBAQIBAQECAgICAgQDAgICAgUEBAMEBgUGBgYFBgYGBwkIBgcJBwYGCAsICQoKCgoKBggLDAsKDAkKCgr/2wBDAQICAgICAgUDAwUKBwYHCgoKCgoKCgoKCgoKCgoKCgoKCgoKCgoKCgoKCgoKCgoKCgoKCgoKCgoKCgoKCgoKCgr/wAARCACgAKADASIAAhEBAxEB/8QAHwAAAQUBAQEBAQEAAAAAAAAAAAECAwQFBgcICQoL/8QAtRAAAgEDAwIEAwUFBAQAAAF9AQIDAAQRBRIhMUEGE1FhByJxFDKBkaEII0KxwRVS0fAkM2JyggkKFhcYGRolJicoKSo0NTY3ODk6Q0RFRkdISUpTVFVWV1hZWmNkZWZnaGlqc3R1dnd4eXqDhIWGh4iJipKTlJWWl5iZmqKjpKWmp6ipqrKztLW2t7i5usLDxMXGx8jJytLT1NXW19jZ2uHi4+Tl5ufo6erx8vP09fb3+Pn6/8QAHwEAAwEBAQEBAQEBAQAAAAAAAAECAwQFBgcICQoL/8QAtREAAgECBAQDBAcFBAQAAQJ3AAECAxEEBSExBhJBUQdhcRMiMoEIFEKRobHBCSMzUvAVYnLRChYkNOEl8RcYGRomJygpKjU2Nzg5OkNERUZHSElKU1RVVldYWVpjZGVmZ2hpanN0dXZ3eHl6goOEhYaHiImKkpOUlZaXmJmaoqOkpaanqKmqsrO0tba3uLm6wsPExcbHyMnK0tPU1dbX2Nna4uPk5ebn6Onq8vP09fb3+Pn6/9oADAMBAAIRAxEAPwD8O18J217qjt/ZLMWkPVSR+Ne3eBfhR4Ue00O7l0yGCS5lG4wx7WJHrXt+ufCX4M/BjR9Fk1STUtXilsreW/K3SQsnmgHaoCHP51zl9p+gaH4mttM0V5FsI9XlFp5jAnyyMrn3r46vjpVoWi2j9E4NwmDq1cQqsU/c6rY+mPjF8U/Dfw0+EWh6NKVNxe2MI6/6qIIN0jf55r89vi/4gtPEPjS71W0uCySsQoRvvCvWv2rvixe6hr1vo9rOAljpa2uM9QFB4r5182/u9XE5leJN2FftW2X0Goc7PnM1rU1XkqeyZpaVYW2q3SCOMxXKPh2f09/Q16V8HPCUmt+KoY9MkYr5qEbR1wf8iuP8D2miize8tgzzoMzN1yxPBNfTH7C/hWTxH4/hNtpwESHcWK4Awfl/PrXVVcUnqcmXQdSaVtWz7h/Z5+HGn+GfBNtbiIK7kPO+Oc17To+kWpsooVB3Afw8kj2rkvDFhb6NYJZxYGEGWU/e4rrdH1HT4cW812kayoRK0jkIB6tj5mA9O9fCYmTlJn7HgKahTjTiR34kdjH558tePvDJ+uKkS1iuITGYXYFME47/AIVW1LxFagGx8OancTRbuX2iJD9FHOPrUaapqOkxK8FurgkZVp8459KeHVz1MRHlhYkg8Lpo0XmLZvhTnNS2GpzS6h9lW2K7Rkbh1rptJ1RdStJBqo8sFeBnNZ2l6YGv5rmYtknbGMdq9LlPDnW5Xy2F0XXLy3unSW18vI/j6Vyfx0+FPhLxHYS62lrD9pjTLLGuCa6m9jKS/KnP1rA8Rrb3dvJMbjY3lbSCvHX1rJ0UpXOarCNVbHwF+3ReX9j4Lm8GXEO6D+zphpcyqDkh9zI2c529sdBxXyn8GrVU1C+kCAsstqo+T7oya+7/ANsnwTL4i+HepokI+06cHurTZ82dowy8dcrn8q+L/hTYBdSnmiOFu9TtmCE4PBNepg406eHlGG7bf3nxmZU3/aEbo/W6/UWXwO+DdicLJJrWtOBk5wtvbD+tc1+0wEOm2UZAxs6Y61v+LLr7J4c+C/h7ydrk69NKXPyt8lrjAriP22dVvNC8D/2np1xsljtiUevKpxlGq79zmxtZww7kuh82/Gf9nz4e2D/D3Wo9FgWbxUuqSag6jHmGGfamfwrlNZ+AOjwt/wASwSwf7nSua8RfFn4ieJ4dNtdf8X3lzFoySLpUTOP9EEh3SbMAY3N1rU+Edh4/17xrptrL8RdR+xXjsZLfYrgKvoWzXp4eE3Pc+QoZ9QrS5Gn/AEzN8b2mseNINK0HRrbzb29jtPKTHzEBY8VW8c6AfDfxMTSbgASWus+VIB2IVM1zz+MPFSabofiTwst/Hqmn6duguLW3yMqqbcnp+FXfE/ibX9Z8cx+IfEpDTXF4ktwAuD5pRd3FJ0JUUl5n6NwDXoVcTiunuP8AM4v9uP4Y3qX+meLvDoTfdaSom2n+IDkflXlPw20ltWsi0tkZoYwUYsvU+w9a9n+M3xI1vxVqMPh29skS005dkUwbnLYJz271sfDrwRoFj4UkmhtFKPfO6TyDqMJXtYVyjhrHx2aQjLHT5drnGfC34M6jJqFrdSQzWumSHfcQM/8ArMHpnFfa/wCzF4Y8MeEtEN9ZRxxPLKTsA5CD+GvFPDGitf2cVhC26JMhQBtx7V7BoGlr4QsdPC3ryS3LGFYFPCHGc579/wAa5MbO8HE9rKYeyqKR9LaH4igljiYSAhwCSa3rxxLboLp9olOC3tXBaB4VurTw1Dc3MxWRFB6960LvUdSeTzb25MjRIOM8YxXys430R+nYJzpwUmeh6bY26xrNYbY48dhjP9c1ckSeQILUTOx6ExEg/U145rP7TN/oVl/ZXg3w5LfXgBDXEcm1I/YHufpXB2H7ZXxCsdcK6zoAkIl+eH7W64Xvywxn2rqw1Cryk4vNcPGXK9z6z0OaeGURSaQjKBncnynP0710bq5hDBNpx908GvDvA/7V3gPWYBe37yWsijL29zGQyn2boa7OL47+HtVUNo9yHjB6ivUp4edtTzp4ynUd0aOuQ3DamCFGB2zXI/EeHV9UsRb6POqtnDxr3ral8Ww6y7C0DsVUb2HPFc94tu9JstOad9Tk3lfnCT7aJUGjJ14JXPGPHennSp5dP1dgftERRlzlTkV8Q+HvDQsfi0dOtFBVNYRdi/w5lC19k/ECfRYrx9SOs4KBnWOSbeH46V8ofDzTp9b+IbeI5WXEviC2UDuQZ0NVQ9xSPlMyqqpXi4n3l4uuYrf9oX4beGop8tFoWoyuh/gyY+9J+3hFj4XyLgf8eYrO+Icqz/tw+B7cNwvha9yPxStr9u6NW+FrkdPsbfyrz/8Al6eNjv8Acpeh+eMSlXBA6E816l4T0ZdP+EMnjKOfy3gjuoVKdQWTP+e9eZQlS4Un+I5Fd/4ev5Z/A95oHnExNpU1x5WeCQRzivWw3uz0PzfKb/XYx8/8zgvAPi27i8I6faQRRon2VMgZ54FZPxd1NtNvn1DSohK0N3ETGRx9xK9l+Dv7Kthrvw+0bVbrxRMvn6dE/lxQg7eBXkP7THhK58HeK9X8IWk7ypBcRlXI+Y7kQ15GHzPCYzF+zpN3T/U/WeAcqzXLsTjK1ayi6UuXbumh3gX4ZeMf2oPifZ+FtAt0s1trMT6jcScRxRx8F3PbnivU2+DXw90xD4c8JfGS18QPp0p8+0itnijaQcFQ7DEn4V2n7KuiQn9lfWr/AMOoYdW1G6SwvLpRhxCFG1c9gSxr6Q8GfsffDDwd8Fd91IkCxwfadQvG4JfGS2favRx2NlhVpserlmSUcTR9pJXcj5H0BrXRNbSTU9PeGBGyYAvX2r1n4S6Nd+OPFQutTt2jSBg9vaqvCD1PvVe4n8FeM/AVz4o8D2yz2Ud2Vtb6dP3hCyFTuA9SufpXefBr+07lFFlarDEAAW8rkn61x1cTzwuzfCZc8Ni1TZ6bf+fFZi2U8Kcg/hXmvxa121/s06e1w8SSy/vHjzn6cV7Dp9rZ3Ufl3jvudcDYOc1n6h8ErXV7sXskLTIWBRSu3J9Dkf4V51KUXUSPs8fONGlZHiXhLw7Zm1EtnHfz3P8Ay6wRK2T75PSk134M+NNdV59R8G27RyZyTrUfnp7hA2f1NdP8aPh548FnfaZFqkulxNaSC0tdKfy55JP4TJJ12+wxXy9+z3+zn8Y9T+LF7ceLbvXbeOFpHgvZNTlXyxtAUZkGC+8Fsgnj6V9JhHGSsfA5ljI4eaU4vU9K8afBzxT4ItI5b9J1spG/cyyMWUn0yK6z4QLqOk6TJFaSNNG/c9iewNJ4f+JPxM8T/DG/+HfiHR7jV54JSkWoKh45xk17h8FPhLpXh7Sxouv2f72aBXAZeScdKxxNdYeyZ6ODoSxK03OX8U/Eu78FfDx4bWUwyHln/vH0r5M+JHxT+IvizV2js7ybyy3ypFIRu/Gvov8Abo0238H2emW8tqzWdwxEEa5w0gHC8da+MdS+Ifj/AFP4hJ4Jh0q00+D7QseZdOaZpQWxgfJtGOpyRkHjJzXqYSlTrUue587m2IqYet7Nux0OuJ4rTTpX1e42RmDcY5iWJPPGawPAzBPFml6LETayHVrNhLIflDecuCfYV6f4C8CeI/iBr9x8JPFWq/Z1tLpi18yF4wqHP7sk5wcj5SeDX0l4E+Df7PXgjRls9S8OaTqV0qDz7u7tVZpD3OGzxXn4ytRoNxauzhpc1V3b0OYM2o3P7cngi31HxXBrd3beEbv7Te2zjaX3ei4C16N+3XAp+FTn/qHtWh4Jvvhba69Fo/gnw9pNg2etjZxxn81GTUf7b+4fCViqbitg+F9favFpVfa1dEaYyilhuTufnM+h3dmyXrxgq56Bun19PxrsfDGnrJYXka4JbwldnAH+0ap+JfB3xc0LQ7fX/FHhiSz0y4bbG72flA5GRjPWuh+B9iureLJbCSXr4ZmQfiXr6CjSdOpq0fB18DhcBnFONGbl6q29z6V8Bfs+6V4R8O6JoWo+P5C2j2axOLb5Y58HO4jrXK/Fr9jX4a/EDxDqPjPXfiNqG+5xK1na26AEqgUDcc9hXyFq/wDwUq/aQt7Yyr8EWQP/AKvzrjLfl1rhNe/4Kq/tDmV4LrwrFZ5GGVom6V4OF4YxVKr7WGkvVH6XHiWMIuNOW+nyPqj9hzxXaXXxM8T/ALNFzPJAbgmfTBKcb3iP3frivq39pa68Qw/sttpNjPNG19KbRu2Axwa/K74O/tSeJbjx9pPx50/TVttX0rWRPOycB1GNy/iDX7FeA/EHhX4//DmDV/DN3Bf6XqyLPJp0rBljlPLADsc10ZrhqyknJaI+h4dxka2FdG/vL8jyn4VfA2z8H+AbvwtZaen2Oyso0SMnLvJyWkb1+bms34X60kMMltPfBZBMcJtxnmvU9SlvfDXijV/DEd4Ps8umERRSw7ZkkXHBPRlxnmvnW71CXwt40guLSTZE85D5OQQSea8qlNVItSPYxS9hiOdH0f4VvILm8jtrqYrn5sqa9X09tMfw/GbG4gMijCq7ZbI9u30rwPR9cje0ilCln/2e1ej+EdYsvIEAnwzkAHPOc1yO8ZHdKcMRDzLPxI8K+GvHwM+oa6tlOqkB84diPavPbn4CaJErXF18UpmRQdtvFGOfzr2eTw5o+s2n2PUtPinwcq0qA7f61Vj8A+GvDX+lLpNrGyjIl2g/qa93C4uEI6bnnVMrniNX0OI+FvwnjsUWTVbiU2cT7oY2YZc+pFei3mk2c10+tyKkaIu0gDGRXE+J/i5a6dqI0zQoA8oJQzlvlHtxUD/EHxBr8S2LQyMVb76EgVy47nxFTmasejgsDCgrrUyf2qPAlj4x0UTpHHLBaJlJGQHZ6kV84SfD6bw7cpq3/CBaTd3KMqJqlpCqzH3ORjcK+uzoGq3umPBqKFoXT5w/TFeCat8NdS03X500fxQ8VotwSI2XeQM9jmvbyutOlR9nI+W4kymnLFKrGzfyPlv/AIKEfEvxR8Afhno/iDwRdtp93f6k0M0lvyQPLZjnPXOBXxXqn7anx517KX/xB1FlY/dWcr/KvsH/AILMalpFh+z/AKDYQPm6/wCEnjETN95sQybzX57eCdM/te0ee4kY7JMdq9XD4ajOg6korc+DzCtUoYjliz7Z/wCCO3xL8Y+OP2uIrXxN4hvLlRpk52z3DvzjrzX6T/trx4+EEjH/AJ8Wr52/4Ji/s3fBjwh4D8J/GPw/oSx+J9Qs3W6uzcsS2Sc/Jnb09q+jv215Xl+EdyRGP3dg2PyrwalSnUxfuKxtUclg7yPnj9qwGT9nDw/Ln/lrZ4P/AGxNcF+y5YaTe+NLWMr/AKTLpU6Mf9n/ACa6L45a14h1L9nTSrLVLS0NvHLaGCWJ8tt8v+7k/wCe1cz+yA8E/wAZLWyz+8/sSQ8fU16FKC+sKx8djlfOKFvL9Tnfib8JNC+E2jI9/wCHtPMlwcRxQpkc/WvONSs/DeoQ7LnwtpqyMcgvECCK7L9sjVNRtbiO6mvJ5ntbYSQwNOCFJf8A2eK8j8EePdS12OabxBpAgdCvlry5KnvXA6+IcPdkfdxyqj9ZpdpJ/gfUvwS/Yd+DHxC+Htl4hu7VrO9vo33JbyKkSuDgcEd6q/BQ/F39in4uy2MOrNJ4d+1iOewMm5ChPyzL2UnNfHfjDWtWk8U3U1p4r1SCKIZS3huXVAQmema+tf2D/Alx8Vvgdfzag8009vfHYxmJIGwHHJreFKToNzkZxxX1THWw+lj678d/EDRPF+Net7gW13PA8TJnDF2PX9a8E8bWskscYs4szQty8vUc9a9Ri8M2T6dBfXCAXUEY2Y78dDXBeILnTrS9njc+c7EoVMnIrwIU1GR+gYnFrEUYSZ6B8KNZs9V8PQQxXSTyoAPM7sa7zS7ya1mheNgBGeffNfP3w+1iTw1rcZV9qklsN0HtXr+meJYdQdIMEswyeax9m3PQ1o4pUlZntOh+N4vsSxyuFKckjtiuI8X+Ptd8faq/hXw3q32a3BP2mcDJA9B6muF+Inji50TRTFFcOgbClEbl65nw3cX+n2Y1ea+ZDNJujiLYP5969KlSUfeZnic05p8t9Dd8YaX46+Hl/wD2x4YsTq9vHhU3sAyufUHrk14tqvx0/b6sfFk19rGh+Fbbw9EcG3aaRZ1HqWU9R6YxXvugeO7O6It7rUZJ4Ube5uFxg1R1DVdDvZ59Nl0yBrfUFw4yB361rHk5jDFZxi4U0qT0R5rYftc/E3VmGkabBPMzr++WCXegPru9K63wh4ivdR0V77UrvfO53S/N90+lTX+n+DPDbvBo9pZSJtI+WP5gfqK57S7+1sXmVAVVjxF79q9Gkqcad0j595niK9Vqb+8/Pf8A4K5fE6/8ZfF/SfhxZiR4NAsGmuQGyDPOQSMeoRV/76PrXhHwo8E+LLzQNRu4NAuTFbNvupPJIES8fMfQV9o/tQeD4tC+O2r2l66Su0cU5fYNx3Qhsfh0rhtGkWP4YePbaG34OixnIAAHzH+derDFRWHULGue8Luhk8c1lVvz8ulv5vO593f8E5DE/wAAvBChjnymDH05Ne2/tp2cNp8KLyRxkCwYn34rxn/gmxb5/Z98EsTn92+P++jXt/7cMBPwtu1x/wAwuX/0Gvmf+YmXqfJ492wlz4R8V/F7wzqPg2TQNP8AD+os91CqI0zRLDGy4zsAGT09af8AsZnb+0nZ7jj/AIkMv/s1eX+ZJ5ggLtgNxz0r139kvSZYfjnpuolAQ2izpHz958Ma9fCr/aYn55Qx86+Ywc+jt+Zw37XM8+tQzzJpMcSQ2ceTb/dXnv8AnXh3gttRE90dNimbEcYGJM9j6V7z+0xZJD4R1SZpDkWkBGPw9/6V4D4IuzBJNLDDC+Vj4kOQevoa5aEf9nZ+41F/teH9JGVry383iC7kv4pIyUYFWPP+r9fpX3R/wSXvIU+GupWXlxs0uqbW37s/c7DB/Uivz88bazeT+LHt5rZbdgwYiMEDHTvX0r+xp+3b8JP2WPA2o6L4r0681XV7q/MltYadEvCbfvGRjtUfmfau1wbwrsux8fNr+1avqfcPiaQWEBli4BkIGOg5rz7xJoGitcS67PalpmXLOvUH3zWt8O/HA+LPwb0r4jtCkJ1WFpvLQ5C5cjA9elUItUhFy+m3Eausny7WPWvmJ6VHE++oJywaRxsthGsf2qLVwpjbLDOB1962fC3j/V49RdNjLF5flrL8pB+n+e9cr438LokhtNRlSSMv8sU7EZ9Og5rW8FaTqMTraaZZF5Y3DBfmT9WxV06etzGWJcPdZ1PxT8RmbTYdMS3d718eVbFeCaXw9+yv438Y6FBrnjz4q6no21d0FnpdujLGOvzA5zXd/CL4Taj4m1qN/HqIhMoa2V1yR9DmvZtW8DIY/seniVDAFClN3H412WsjnwkHVq8zPjr4jfsd/GTVdP8As/gv9q/ULdj9yNbOJN36VxNt8Ef+Ch3w4iEHhv4yeHtYh/g/tSwy+PUYP9a+wfHPg/USsdrc6TLI/nL+8XYC2O2Vwa4bxv4ct9MtTJJ4c1YvGDmCGdgD79SQfpXfh2+yDH1Ix/5dv5HzLb+Pv2lfDurQab8VEsWNw4Q32mo0alu4IOSK9U8DavFqXirRdOuJTML/AFKGCd9+c7mwT9Kr/Gi0Pifwnp8tp4bkhlsLlZbojr8pzhiOe2K8Z/bP+M8vwa+DZ8S+DNTOk6u0kK6RLYSlJI5DySpHI28813xpuo9D5mvik8RqtEa/7esVrb/tV+I3t1HleRFsI6Y+zjFeH6U+qv4B8bw2kEPkf2LGbiSbOQM/w4PX868cuP21fib4y1htZ+JepPrt3JGiT311IFmkVV4yy8E49RXceCfj34PuPDHiHRLiWaGfXtMW2jVxkKR6n3qp4erGGx9lmfEmWZhwnDB0pv2iUNH5H6R/8Ezrfzf2e/CMpGdkkgz+Jr3b9uaHPwpujj/mGS9v9mvmb/gnR+0D8CvDHwV8NeENe+L3huwv7YuLy3vNVjiZW8w9d2OMV9Mftia1oPin4L3Gr+F9as9Ss5NMlxdafdLNH93+8hIrwHCaxEro+Ex+uCaR+XXAuwM/x/1r079ljV51/aP8KaY8DBTa3OHDfKfkbtXmsisbkAKfvnt7mvRv2bpbdf2lfBlmsgExspiozy3ySV6uGT+t0z8vwKf12F/5v8z174qfsep8X/CUsSfEWG1jksVhke1s/NxjucMuT+FfGvxb0D9nL9kbS7zw94Q+NOp+MPEkj/vLTS4EhtbU+k0pZssP7iAnsSKpfHr9u/4iePBdeE/AN3c6Ho0yeXcGKUrNdL33EdB7D9a+ZPEt5eRXrl5zIXJLOxzuHrXFl2VZnN82Knb+6rfj/wAA/Z8wzrC05qOG1a6jfiJ8XfEnjDU2vry7ZpZBsIUHlew55q1oNomieD7nW9SYyX86kAHrGvp7VkaJoSLcNe3RBJ5U9a1dQkI0eSJT8uw/LX08I04RUEj5r2kq1fnl1Z+p/wCwpqiap+yhoejzTlpNP8y0dc/dIbeP0aul1uwCytInOHNeH/8ABOf4lWwj1L4a3dwoku4o72xDt94qm1wPw2n86+itftAyFo1AfngV8dnFD6vms4+Z+qKPsqfKcfrFra6jEVukDOh3IWOQpHrWh4a+ImgaZerZl4bm5VCsm22O1298EcVneI7gtFIkY2nHU15P4xl1C3upP7OlcNj5Sp5oocrZ4uLptybR9R/C/wCMl+mq2/m6xFaRXM7blhPv0Xd0FfQEXxBspbGC/SL+HEkgQ8H3r8uG8YeJfCredp9k80omBcu/I9cEHP6V7x4F/bts4LGKzvt1osaJEbQcMx7kggGuqdB1F7pz4THewq+8j7Dk13wzrszRLEd0TZZyMDJ9K5rxj4jttFuVmt7tYWDYGVOHz79D9K8i0L9ozwf4h0qTVEuZhKyloUSQFSf7tcR4h+P1gb1ZtNvEuJGXy1tmQsx+bkcHj8qdPB1k9jox2e0akbG/+1H4l0XTtHW9h0iDdqAUXk0RCkgHqBnn3wPzr8w/26/jjL498T2Pgi0uvPsdHJk83zQd0jfw/wDAfxr6B/4KI/H/AMWQxW3wptJksru4jW8vjESJ7aL+BN3VSeePTFfDet2v2oyx3EvmzOxbz3boa+iweHlGN5Hw2LrqtWckYttJi4wOnvW7YXpth8vP0rnIncnY+QRwQRWvaShYtoP3PSvS2OQ6m31e7idJVnIXvzya6nw38UPGnhZvtegeK9QsVkXEwsrqSIN/vBThvxrg9JaS8XyUQsw6ADOa6bw/pr3KeQ0R+Yccd+1c86cJdCueXc73Qfjj4006VLg6p9qj/jW6Xdn8etel/Bv9orS9K+KugfEDU759EudNkVTcQhpEEeDnI5YZGc4BrxKw0+KCUQyDbuOME96t6dagTNG5woOAK5fq8ObmWjM3h8NKfNKOpz41GG8ty+5d6nhuxHpWVPbxX12sKplc53f0q/FHGlrtWP71x6e1MsSqanKApZUVO3AOa6rMoQadBDCAqDiq91axSadOjJn5cr+ArWk+zsNy2oweRzUUNpFKjx+Wx3A96hrU1hJI7/4P+PdW8JzaH4t0O88me0EZjlyeMYBB9jX6B/Bj48+Fvjf4UXUNMvxFq0KA3mnseR6sPVa/M/4e3QSxu9EkOGtbg7Qeu08123gv4i+J/hzr8Ov+HtQkgkhcHKNw4/u+9Vjcro5pQTXxLZ/ofsGDlTxWXwqeVj738SwyrclpYyGOepGK4y78NPe3BMuVzXG+BP2w/Cnjy1jt/GwWwvtozKmTHIenTqtd9YaxZ6kpk03Uop0PR1fcPzr5OpgMTgpe/H/I8/E0Zwkcxqngy009DdXkibRzskGc1wfxEutC1K3a0e1jSTbhWC4YV7Vd2VrqUQS+uC4PH1rjdX+HvhtdRe6neNIF7yHsK6sLTnKzPn8ZKNOTijzLwH4T8Y6cpTRtaunSZ8qkkpG3+grX+J3x28Cfsv8AhWbVra3i8ReMJAEgid98Fq/8Jc9eOuOp9qu+KfEvizxH4J8Q3HwL8Lz3ml+GdPefxL4vjXZYaYq4yglPEs5yAsaknnOMZr4p+KfiGfWNZttKjneVfN82Qlskc9/evp6GX8sOeZ46hCpRqVZP4enU0vHPi3xR8Q/EN34x8aak15quou0l1cuOrHnAH8IxwB2rjdX2W82Qnc9q6NIJigYRNjHXNY2sWwJLycuDwq1pHQ8Lcwbyw8xhexggPww9TVexumhuyO5OOO1bCFrv90wwv04Fc/q8f2G/KL060+UD0Dwbp7WzrIV+ZW7eldnNbizl3xLjBBjzXMeDm+1W1vNJIcSIOSPTiutnUNawzDuCGyfTH+Nc9mAl48Md15kfyhhvX2FLcTLHcGZAP3oDgCq9zKssUWeT83P4/wD16c//AB7wn2I/r/WrAwCdtnG54yXP8qh8PtdPbNdKnE8hIJHYcVH4lnNrokbpJlnVguPc4rSsIbjTbGG3jUbVQbtnagCVrqJnMc0S8d88mkQ2ofC2zkDvuFKt20q5kjjJ75XBqQPahQZI9vuDms3uBR8PRfZPGlxJayE/abcNtPcrXUzmaSPc6sMjnjpXO3qppdzBq8Z4WXaT04PWvQdFgtdU0/LruQqOa9nBLnhY/UOD6qxGWyov7LOQkaRZvNhZkP8AeDV96/8ABLT4C+BPir8FvEeu/EbQRftJqiR6dei7mgng2J83lywurDryCSp44r4m1PwHcyymSxvWVm5VZBuX/wCtX1n+wz+3f4M/ZU+E3/CsviJ8G9Z1QG9kuDrXhzUIXZg3QNDMUxj2c5qsZh5Swzio3N86w+PjhX7FXemx9Har+wx4M/tHfo/j7xvZwu3Cf2zaSge2ZLMt+ZNafhb/AIJ9/s86hqFvd/EO18SeKvKwTa+IvEJ+zNjs0NpHbhx7OWHtXKaf/wAFW/2RtaiaZLHx5byIcPDJ4VVivtlJmX9awPGf/BXnwVpED23wj+B3iDVLrB8q78S3cVlbg/3jHE0rt9Pl+tRlmW0Y6yjqfm2LwXEuLfLThI9K/wCCoupeFPhV/wAE7fFfhzQdOstJ02VLLTdP0zTbVILeISXEZaOOOMBU+SNjwBmvxJ8IaZeeL9budbaQ+VAxC5Pavp39t/8Aaz+PX7R+gyX3xa8XRGyim2aP4d0pfJs7R24LCPJLttyC7lm54IHFeDeA/D8nhnQ5raeMmSaVS5x7f/qq8zlySUSpZJmGUYJxq6t6yt+X5kh0W+HyKC/o2e1ZuraQxLedyP7q8/rXXv8A6hzjgqcVW+wQTktOu5Ryc8YHpXjuR55wEuk31xJshjIAHK46VH4s0iwh0xGlk/fswEIz1rvL+CxSJrjIiVR09a8+1prnWdeN5IpWNW2RRnoPer5kB2/gOELoQticmNQw+mcH+ldAspWwkjJxgbh/n8ayPAsSQRJHIcBhtk9hVu7lePdF0zkGpjuBJA32jTC2OY5CoJ/CpVJksicco4/UEf0FU9PU/ZXi24x83X/PrVq2k3JPCB/Bx+BH9M1dkBxviDdf6rp2j9MkF/puJroSlxDzFJuycjGa5vSw2oeM5bqTgW9uqp/vEV0Mts8ZzEx5J+eM1gBL5z7dtzGh+vFSJHDMy78r6gHgVEj70DbQ2e9SGJJAuMjHLYoAZq4hvreawRsptyre5rr/AIX3Rm8Jxu2CVGG59DXLX1vGYQ8Iwki9K2/AUz6b4auIxyftDgH0zzXpZdK1Wx9nwZiHSx84fzRN+711rWbDgsgPAFWE8W2HleYBggcqaxRDLegO0nDDPSlj8KT3G8m4IBXoGr33OzP0b2tVv3DV8I+L7DVbu/ktbbEUEsagD+JsHNXNQ1m4NsVs0SNvVhXKaC8XgixmtxZyO005kLAelWk8W2uottjLRSn+ErxWtH4UYVK84JxluZPi6xvdXvraC9l3x27G4l56AdK57QNX/tATIHBUXbAEHiuz8Rp9m8LalrrEFmhKr7etcV4Q06+0yzisdQa2MiRhnigTDRB/nCyHbhmw2cjPBAzxgeFm8/3h8bxVelhIx6y1ZszqUhWM8HlyD+VBjX7LuP8AEx/Kl1AYuNp7KB+lOlkTCRbfupmvKPz8p3Vhb3unul2owTge+P8AIrkta8P3Csl9YQlo0fBAFdlqH7qJFXoVz+dUZIVFukHZmJP+fwrN7gLokQgAZT1wQKu+Imih1CNohw4GfTP/AOuq4C2b2S5yZWbfx2FV9emaXYD1V+auAFvShiKSJsHMR/xqa2++cd1b/wBBqDTflkXJ74akvZDZ7iW+5WoH/9k=;" vertex="1" parent="1">
          <mxGeometry x="580" y="530" width="160" height="160" as="geometry" />
        </mxCell>
        <mxCell id="jz0n9BMMyre-CqTkaLTM-48" value="" style="shape=image;verticalLabelPosition=bottom;labelBackgroundColor=default;verticalAlign=top;aspect=fixed;imageAspect=0;image=data:image/jpeg,/9j/4AAQSkZJRgABAQAAAQABAAD/2wBDAAIBAQEBAQIBAQECAgICAgQDAgICAgUEBAMEBgUGBgYFBgYGBwkIBgcJBwYGCAsICQoKCgoKBggLDAsKDAkKCgr/2wBDAQICAgICAgUDAwUKBwYHCgoKCgoKCgoKCgoKCgoKCgoKCgoKCgoKCgoKCgoKCgoKCgoKCgoKCgoKCgoKCgoKCgr/wAARCACgAKADASIAAhEBAxEB/8QAHwAAAQUBAQEBAQEAAAAAAAAAAAECAwQFBgcICQoL/8QAtRAAAgEDAwIEAwUFBAQAAAF9AQIDAAQRBRIhMUEGE1FhByJxFDKBkaEII0KxwRVS0fAkM2JyggkKFhcYGRolJicoKSo0NTY3ODk6Q0RFRkdISUpTVFVWV1hZWmNkZWZnaGlqc3R1dnd4eXqDhIWGh4iJipKTlJWWl5iZmqKjpKWmp6ipqrKztLW2t7i5usLDxMXGx8jJytLT1NXW19jZ2uHi4+Tl5ufo6erx8vP09fb3+Pn6/8QAHwEAAwEBAQEBAQEBAQAAAAAAAAECAwQFBgcICQoL/8QAtREAAgECBAQDBAcFBAQAAQJ3AAECAxEEBSExBhJBUQdhcRMiMoEIFEKRobHBCSMzUvAVYnLRChYkNOEl8RcYGRomJygpKjU2Nzg5OkNERUZHSElKU1RVVldYWVpjZGVmZ2hpanN0dXZ3eHl6goOEhYaHiImKkpOUlZaXmJmaoqOkpaanqKmqsrO0tba3uLm6wsPExcbHyMnK0tPU1dbX2Nna4uPk5ebn6Onq8vP09fb3+Pn6/9oADAMBAAIRAxEAPwD8PF8J2t5qjsNKZt0h6qSPxr27wJ8KfCxtdDvJNLht5LmUbmhj2sSvqa9u1z4S/Bn4MaPosmqSalq8Utlby35W6SFk80A7VAQ5/Oucv9O0HRPEtvpeiPIumR6vKtp5jAuIyPlz718dXx06kLJs/Q+DcJg6tXEKrFO0Oq2Pp34xfFTQPhr8F9Dsn2Ge9toESLd/qogi75G+n61+evxk8Q23iDxve6xaT/u5WOAvevYP2ufi3dX2s2uhW12Gj07SltSCfvfIDkfy/CvmoS313rHnmV403ERvjiqy+g1DnZ87mtamq8lT2Rq6TptrqF2lxakrJn97n0/z1r1D4EeELrWPF8EVi5ZTOuRH35wP8/WuF8HafpUdhNdxOZG/5ak8/Oa+pf2DfB8XiXxpFJDYAIgWQsV6dQP8a7K7Sg9Tkyym6lSK7s+2f2efhxp3hnwTa2AiCu5DTuRzur2Ox061aCOFZijAd+S49q5Xw9YQaNbJp0RA8tBll711ukXUUPn2092kcUqESyyOY0A9WI+ZgPQda+GxMnKTP2PAU1CnGnEivop4nRDIY0U+3NPktIr22e2MrHeuMiodS1qEKLDw5qXnx7uXisxGn4Z5ot9Z1LTLqNRavJljyZRxWmHVz08UrU7DLXw6mixKxhcgdDirWn6qZ7pokgPyL90jrXT6deW+racZ72QRnGQCKoaPphNxcXMrYkMmFAHau/lPFlWSfLYg0DUky0b2pUE4IfpiuF+OPwO8KatYy+JbZAJI+WRHPFdxeL5chKjpzXP+J38+1mdLoAypgqe9ZTpTjK6OSvTjUV2fn/8Atxajf2PhabwDfQ7oTp8o0iYqG3HfuZGzn7vbGMBsV8s/Bu1VNQvZAgLCW1UfJ90ZNfcf7a3giTX/AIe6hMmnj7TpJe7t+MllAw6/lk/hXx58KbAJqE8sZwt1qds20nB4Jr1MJGnDDSjDdtv72fG5lTbzCPMuh+tt4psvgb8HLTo763rTj3C29uP61zP7TCKdMsomAx5eD710Xiu5jtvC/wAF9BCnzC2vSyB+n3LXH6VxP7bGs3nh/wABjVbBwJIrbKlhXlUoyVVp9zDGVXDDuSPmn4z/ALPnw90+T4e6/HosCzeKhqkmoMox5hhn2pn8K5TWfgDo8Lf8SwSwf7nSua8RfFn4h+KIdNtde8Y3lzDo6SLpUbOP9EEh3SbMAY3N1rU+Elj4/wBd8aabbS/EbVRZXjsZINiuAqjsWzXp0ITc9z46jn1CtV5Gn/TM3xzZ6x4zi0rQ9FtvNvL2O08pMfNgJGBVbxz4fPhv4nJpM4USWus+VIB6hEzXPP4w8VR6ZofiTwqt/Hqmn6fuguLWDIyqptyenfpV3xR4m1/WfHEfiHxIwM9xeJLcAJg+aUXdxSlQlRVvM/RuAa+Hq4nFX09x/mcn+3R8Mb1JNJ8W+HVQNdaSom2nnco5B/CvIfh5pLarphaWz86KMFGZl5J9h6/rXt/xs+IPiHxVqMPhi+sUS006LZFKG+bLYJ9j1rQ8CeB9AsfCbTw2iskl9I6TSDqMpXtYVuOGsfHZpCMsdPl2ucX8LvgzqEl/ALqKa10mQ77iBvmEgz0zgZr7X/Zh8HeGPAfhlb+xijieWUkIo5CA/drxXwvolxf2cNhF80SJsjwNuPavZPD+lr4Qt9MtEvXklvEMEcKn/VEAEn3GG/PiuTGzvBxPaymHsqikfS2g69ACirKDkZzWrd+XcLHHO+xJPvH2ri9J8P6hpujQak0pWVACBngmrl1reoNIdQvJNzBeVB4wK+UnC+iP1LBTlTipM9G03TbOGMPaBRHjr6/j/wDqqzIIn2Cz2O5HePg15Br/AO1XZeHLA6f4c0SbUrqJf3zxj91F/s55Fc34d/bmeTVUg1jQr2OMvhlh8uTYvqQuOK7MPRqW2OfE5nh+a19T6a8OyWhYRTWM8WP4i25T+ddLLHF5IktrdQCvYCvLPBfx8+HetQrqdpr8BiP/AE12sp917V083xf0C4/d2V4hUjAcNn8a9OnQk1qebPEUpyuhmqi5/tIsAdoPIBrifiSus3kCw6OY9rHDqv8AOuovPE1tqxaOzc9MM4Fct41+zaVYNt1twWHIRx19OlKVB31CVeMY7niXjywkhefTtdOftMLIyPyDkGviHw34Zi0z4q/YbBf3aawiiMdv3gUV9l+Ppoba5u9Ul1nzzHBKwjkfOeCeK+UPhtps+t+PW8RSsgjl122UAdTmdKuh7nMfKZnUU8RFxPvXxdcxW/7Qvw28NRT5aLQtRldD/Bkx96T9vCLHwvkXA/48xWd8Q5Vn/bh8D24bhfC17kfilb/7d8YPwtdh0+xt/KvP/wCXp4mO/wByl6H52RKVcEDoTzXqXhPRl0/4QyeMo5/LeCO6hUp1BZM/5715lCVLhSf4jkV3/h6/ln8D3mgecfKOlTT+VnjKkc4r1sN7s9D83ym/12MfP/M4P4f+LruLwjp9pFHGqfZUyAD6Csn4xam2mag2r6XEJmhvYiseO+xP8a9k+Dn7Kun658PtF1a88UTL52nROY4oAdvFePftO+EbjwZ4m1rwTZyvMkFwhV2HzHciH+teRh8zwmMxfs6UndP9T9Y4ByrNcuxOMrVtIulLl23umi74D+GfjL9qH4n2fh3SrdLOGz0+ObUryTiKKJOC7n68Yr0s/CT4e6ZGuheDPjJa+Iv7OlPn2kVs8UbSDhlV2GJOnauu/Zl0Mt+yVqsvh6Mxanq17HYXlyow4hCjauewJY19HeFP2Q/hb4N+Cga7eO3W2g8+/vG4JfGS+fauzHY2WFWmx62X5JRxND2kldy1+TPlPwxcafoWsCXXLB1RT8tuB95uwr1v4KaBdeNfEg1TU4wpgINvaqP9Wvqfesm/bwh4o8EQ+LfCUCSWjXgEF3Kn7xl3EfNjvmvSvgt9vniV7DT1hhcdosF/xrCviHOF2dWAwDoYxQa2O+1SNxFEsYG2PqQK8y+LGtwXMEWhxai9ojE+YyblL+3FezQabY3Vs0Mp2uw+XC5+tYl58DItRvReX9objYS0aKv3u9cFFxlUSPr8wnGjCyPItB8PrBpyy2Fzd3N0RtW0ij3vtPrWVrvwU8TarAb5/A2qWfmtmO6R4vlJPcKxP6V0Pxn8M/FG08O6wnh7UpdCkS0zZWukf8fNw+esj9V452qK8B/Zl8L/ALSOua3revat448QQyafBNLE97fPLE7BiYwwZVz8n3uBz6V9JhlCUHY+AxuOp0qqjJO7O08Q+E/GnhaRbLUDPF2EhGwt/jXpnwq1bWrDQPs15eNMWYYlySRVL/hZ/iH4q/Ce18Ja54akm1WC4Ea3dvb8HnGfava/g98G9ItdCOk60MThQ3I+asK9dUJJM9PCUZ14Xj0OZ8b/ABSbwV4ES20wiOUj52bqxr5U+IXx1+JviXVvJsr6eKPf9y3bkivaf227W18Ka7YaBcRuIHgLW6ISvnOeMe9fJUPxJ8TeJfHq+B9L0Kxsf9KWMS3Ak3uT0I2lTgEcntketepQoRq0ua587mOPq0a3s27HQeJ9b8XXOjXg1adtiwniRyGOawPA1tDbeLNL0WKY2r/2tZkTSH5A3nLgn2Fek+BPCWv/ABgv28A65dx2l1YXTrPezJv+VDggHjfnoO/PNfTHgX4Ofs9eCNGSz1jw5pOq3qoBPe3dqjGQ9uGzxXnYytRoNxauzhpc1V3b0OYM2o3H7cngm31HxXBrd3a+ELv7Te2rAqX3ei8CvRv264FPwqc/9Q9q0PBN98NLXX4tH8E+HtJsWB62NmkZx9VGTUf7b+4fCViqbitg+F9favFpVfa1dEaYyilhuTufnMdCu7Nob14wVc9A33fr6fjXY+GNPWSwvI1wS3hK7OAP9o1T8S+D/i7oWhwa/wCJ/DElnpl222N3s/KByNwxn/Cuh+B9iureLJbCSXr4ZmQfiXr6CjSdOpq0fB18DhcBnFONGbl6q29z6V8Bfs+6V4S8OaJoeoeP5JG0ezWJxbpsjnIOdxB5rlfir+xv8NviLr+oeLdc+IuoF7l1laztYEAJVAoG457LXyHq3/BSr9pG3tmlT4JMgf7nm3GW/LrXB65/wVU/aHileC68KRWeRhkaNjxXg4XhfFUqvtYaSfmj9LjxJGEXGm91b5H1j+xPrtlc/EzxR+zPdTyQMP8AStMjlON7xHlfc7a+mP2oLrxDF+zLB4esppY21S5+yMemQzbT/OvzA+BH7W/ie4+JukfHeDTFg1fS9ZD3bJwHj43Kfqp71+wvhG88K/Hj4c2+r+GpINT0XVEWf7FKwZY5Ty2P7pz+VXm2GrQmnJbH0PDuMjWwro395fkeSeEfglYeCfhpfaJp2nxpa6dbKttEOSrKpy59TmoPhhraJpcUEl+BKHwY9uDXousXd/pc/iTw+18rQm0zCjQlJ4yPlIbsRjuK8AsdTn8M+Pokil2RXHDApmuCE51abT3PYrf7PiedH0l4TeG8uljurjYV5zivVBHYw6PbX1qY3ZdpBMwJ2j2/pXg+j61DiKZHIY4yQK9I8JXVu6RW0E+HY8ZPNcqbjNM7qvJiI3KXxK+HGmeOJG1Gw8QxWkpHduT+FcLdfAbX7aKS5vviNbeXjHkxJuLV7RqHhHSNethFe6eDKp2iYFkb8MVUtPAHhzQf381qoYcmW4Zn/H5q9zDYuEIaank1cpliHzSWxx/wn+EsWnxxT6ogW3hfKReWB559TXdroNmL5tXYLHHNhRg9q5XxH8X9K0rUP7L0eETyD5Wcn5Riq158RtU1+RLK2hZSG52fdzXHjfaV6vMetgcBGhSOG/bB+Gdv4yvINQuLOGZrEYtrhycKT9K8Fh+G2k+GtWh1e5+GsY1BnC/2lbHcG/29rNgGvr7XvDV74j8OT6bqyMI2iO1+hzjrmvBm8C+LdNu/Ig1xGtVmOPMXL4r6HLsRKGG9nLofG8QZRCON9qkpI+XP+ChHxL8Ufs2+CNB1/wCH8jafd6pfyQzPB8xKeXuOSeuSQfzr4x1T9tP9oDXgUv8A4g6iysfurOyg8+1fWf8AwWn1LSrb4QeE7G2Obr/hIXETH7xUQtvP57a+BPBOmf2vaPPcSMdkmO1ejh8NQnh3UlFbnxeYVqlDEcsWfbP/AAR2+JfjHxx+1xFa+JvEN5cqNMnO2e4d+cdea/Sf9tePHwgkY/8APi1fO3/BMX9m74MeEPAfhP4x+H9CWPxPqFm63V2bliWyTn5M7entX0d+2vK8vwjuSIx+7sGx+VeBUqU6mL9xWN6jksHeR88ftWAyfs4eH5c/8tbPB/7YmuC/ZcsNJvfGlrGV/wBJl0qdGP8As/5NdF8c9a8T6l+zrpVlqlpaG3jltDBLG+Wx5f8Adyf89q5n9kB4J/jJa2Wf3n9iSHj6mvQpQX1hWPjscr5xQt5fqc78TvhJoXwn0ZHufD2ntJcHEcUKZHP1rzjUrPw3qEOy58LaasjHILxAgiuy/bI1TUbW4jupryeZ7W2EkMDTghSX/wBnivI/BHj3Utdjmm8QaQIHQr5a8uSp71wOviHD3ZH3ccqo/WaXaSf4H1T8DP2Hfgl8Q/h5YeIru0a0vb0P5yW8ipEpzgcEVe+D7fFj9h34uXmlnVmufCZuwraeZN6iMn5Jk7KTnB+lfD/jLWtVl8UXd5Z+K9UhiiGYLeG5dUyEz0zX1/8A8E/vA4+KfwO1SHWBNcTx3zbJ3lbI+QcfpW/sqrouc5X8jOninhMdbD3XKfVXxD8W6F4qtp9W0vUPInvrIoI1OG3dTzXg3jCFhc2s+nLiSJxukm4xjvXq1h4ZtYLCC+njAuoIwjn146GvONXudNt/OhuFFy0xIz5nIPpxXgxoqKsff4rGLFU41LHrfgTVINW8PWrxTLIwjGSOpGK7Xw7rE1jfxzq8YAGMGvn/AOF/iGTwxqBtPMG3Zn5s85PbtXqml+IIdQl8pFOVGSSaxVNueh0UcWqasz3Sw8d2P2ITttQqpLkgelcB4o+Inij4g6hN4c8KSxQW8f8Ax8Xrc7R6D3rzb4lfEe80e1j0+2upIlmO3ZGOSfWqPhfxJr2h2kFzNqIiWZiT6YPdhXo0aKhqTXzT2s+VMl8VeIPGnwx1O7v08Gy6rtRlsntxuV2x09jXlXhv9tD9rB/FUkHi39nCLRtFSX91d2+poJY8dCykc/QV9B6d4103xFAseqXUM62ytIrxjAJx1+vSub1fw34M8T2Fx4XvtOyskqukpAbC5OQT2FbRVNy1OPFZ5iKcUqeyObuP22/GfiKF/D9nbzyyMdzgR9PcnpitrR9dubzw39rnm8yQqWJHdvSsLUtB8GeEre60zTNJjTA4MBBBxVbRb+1sYJUXJVuBH79hXrU404U9D595nXrVGpn54/8ABW/4nX/jb4zaZ8PrPe8GgWBeZVbIM85BIx6hFT/vo14d8KfBHiy88P6jqMGgXJt7NvMupPJIES8fMfQV9o/tQeCY/Dvx21e1uJI5XaOKeR9g3FmhDY/DpXDaNIsfww8e20NvwdFjOQAAPmP8674YqKw6hY2z3hZ0Mnjmsqt+fl0t/N53Pu//AIJxmOT4BeB1CnPlMCfxNe3/ALattFafCe8fGcWDE+/FeJ/8E2IVP7Pvgk7snY469Dk17p+3FAR8LbvIwP7Ll/8AQa+Z/wCYmR8pj9MJc+D/ABV8XvDOo+DZdAsPD+os99CiI100SwwsuPuADJ6etO/Yz4/aUsixx/xIZf615h5knmCAu2A3HPSvXv2S9Jkh+POnalsGDos6x/7T4Y16+F/3mJ+d0MfPEZjBz6O35nC/tczz61DPMmkxxJDZx5Nv91ee/wCdeHeC21ET3R02KZsRxgYkz2PpXvP7TNkkPhHV5mkORaQEY6dvf+leA+CLswSTSwwwvlY+JDkHr6GuWhH/AGdn7jUX+14f0kZPiEahNr95LfxPGSjDax3H/V+p9q+6P+CS93BH8NdSsvLjYy6ptbfuz9w9Bg/qRX5++ONYvLjxY9tNbrbsGDERggY6d6+mv2M/27Pg3+yv8P8AUdF8Y2t3qusXOpGS2sNMiUlUx94yMQqDP1PtXa4N4R2XY+Pm1/aVX1PtnxDdiztjLE3W4YHB6fNXnXifw1pMFzLrDF1kmycg8Z963Ph58Q7f4vfBvSfiPbWZhTVUln8mNtwQGQjAPfpVFry3vo7jRrlNxcEDf1zXzs9Kjiff4dOWDivI4prd7Yx6jBq4xCQMEgZP1NdJ4I8fa1NI1nJbPE00gEYIGX56DHauF8WeF1j1CO31B45nEmY0EhBDZ9AOTXReDdN1u3ZItDsmkliJBzlME8fxAE0U6dncwnieVOJp/F3U73W9Ug0vQLY3GpSkBIdnCk9/8a6Gx/ZO+Iur6ZFqvif42X1hdmMeVZ6dpiNAoxwHBBNdx8CvhRd6/q0d945t1F2r+ZArLkt/wLPSvXdZ8DjUN32ON0kjchTnHArqtYywdNznzM+YtU+B/wAYNIsWsfDPxe0BnIBJurB4yfrh6y73Ufj/AODbY2uqeBNC1S65/wBL0/UiNwwB91u/tXu/i7wlqN1qMFvJo6yssrHa8wbccdc/5xXB+OPD7aXm5h8A3E8y8PtlO1WB64H3a7sO2uxOPqTj/wAu3byPnuf4neMY/F1voPiLQpdMmuTuieUgo/rjntXofw4vrPVPGOkadKryHU9ThEoB42l8n2xtGazPjhaW/iTUNE8TQ+Gwi6eym5TPyknggkZzmvEf25/jVdfBv4Y2+qeA/EEmjazJfJFpc+nXGyVF6kgjkDFelGlKUdD5Ori4+3bktEdN+3rFa2/7VniNrdR5XkRbAOmPIGOa8Q0o6s/gLxvb2lvD5P8AYsZuJJicgZ/hwev5141P+2r8VfGesnWPiVqb67dvGqT3t1IFmkVVwMsvB49RXc+EPj14OufC/iLQ7iSaG417TFto1cZCkevpRPD1ow2Pt8z4kyvMOEo4OlN+0Sho1vbsfpH/AMEzrfzf2e/CMpGdkkgz+Jr3b9uSAH4V3JI4/syX/wBBr5m/4J0ftDfAXwx8FfDXhDX/AIyeG7C/ti4vLe81RImVvMPXdjjFfTH7XviDw34v+DFxrHhPxBY6rZyaZLi70+5SdPu/3kJrwHCaxEtGfCY/XBWR+XXAuwM/x/1r039lrWLgftI+E9MeBgrWtz84b5T8jdq82kVjcgBT989vc16L+zfJbj9pbwZaI4Ev2KYgZ5PySdq9XDX+tUz8qwKf12F/5v8AM9f+Kv7HqfGTwnLCvxFhtY5LFYZHtbPzQMHOThlyfwr5C+LnhH9m39jvS73w/wCH/jfqnjDxJI+59O0i0SC2tT6Tylm5H9xAT2OKpfHr9vbx54rjuPCXw0mudD0eVfKubhJNs10O4yPug+1fLnie6vBctP8AaGcvyztyT9a4suynM5vmxU7L+VJfj/wD9szDOsLTmo4bVrqQ/EP4veJPGGpS395ds0sg2EKCcr2BJ54qz4ctE0Twtca5qTGS/nXAB/gXA49qyNE0JFuGvbogk8qetauoSEaPJEp+XYflr6eEacIqCR8z7Sdavzy6s/Uj9gXVYtS/ZL0fQ5ZS0mnBrSRCeV+66/o9ddqNhsvMKM4bnFeC/wDBOD4mWds198N768VDqVrFd2O5uGdU2sB9V2n8K+kNfteDJEo3dxXx2cUPq+azj5n6qo+yp8pzOu2FpqQjknEX2iBt0LzfMF+taHhr4g6Dp8729uIJ51jIb/RjtLepw3yisLxJPvgdEyuSeteeatqMpmkiEspzxxJ39qKHK2eLi6bcm0fTnwm+MWoRanbwT6ybeKViTFFwSc9Bu5x+Ve6v8QJLi2t9RtrV2gdBumRQSfrivzPXxjrvg27hudGtFmjScNKWb5sA8qCDXs+iftz2s1qHupPLR/kFmpAVAB3BGRXXPDymvdMsNmH1Wd5I+uU8S6Dq5M32cW5gkZSznBOMH+tcl4p8X2umaqDbXexiSpVRkEf4V5bbfH/wtqnh6XUoCTOUyDG+9XU/eIA9Og+lcLq/x4tbbVGu9Hvbe5lmwRbbNzHjGDg8Hj0qqWDrJ7Cx+eUqisT/ALVfijQdJZbaC3toYJpPtFzLCwVg4HBwDnHvX5l/tr/Gmf4m+P7fQorn7RYaIpjhuEYMJZG6np+FfRn/AAUW+KniyytNM+Gsmopa3d2TfXYiJSeKEjCIzDlc88egFfEWr2kc8Twqd75LeapyCa+jwlBxjdnxeJrKpWckZFtJi4wOnvW7YXpth8vP0rnIncnY+QRwQRWvaShYtoP3PSu/Y5TqbfV7uJ0lWche/PJrqfDnxQ8aeFW+1eGvFeoWSyLiYWV1JEJP94KcN+NcHoccl4nkxoWI6BRmur0DR3kX7PcRn5htX5e/auedOEuhXPLudxoPxx8aadKlwdU+1R/xrdLuz+PWvS/g1+0VpWi/FXQPiBqd6+iT6bKqm4tw0iCPHORywyM5wDXiVhp8UEohkG3ccYJ71b061AmaNzhQdgFcv1eHNzLRmbw+GlPmlHU58alDeWxTcu9Tw3Yj0rKuLaK+nWFUypfO78elX4YkS2YLHw1wO3saZZFY9TlAQsqQL24BzXVZlCDToIYQFQcVXurWKTTp0ZM/LlfwFa0n2dhuW1GDyOaihtIpUePy2O4HvUNamsJJHe/B3x7q3hNND8W6HdeTPaCMxyZ6MOCD7etff/wY+P3hX44eFVurK+EOrRIDeWDN0x1ZfVa/NX4fXfl293obn5rW4OAeu08iuz8IeOvE/wAP9fh17w7qEkEkLg5RvvD096rG5XRzOgn9pbf5H7BgpU8Vl9Kp5WPvPxJHOl1J5qfMc4BIxXCXmgNe3B6j05rlvhx+194U8eWsen+O1Szvgo3XCZ8uQ/Tqtd9Z6xpepDzNN1KKeM/6t0fcD+Ir5KpgMTgpWnH/ACPKxNGcJnI6h4fXTpvtF+NyDoD1rhfiCdE1YG3hiEUxbAaIYcc17pqvh+01m38q9l6jkiuL1L4QaGl++p3U6RxISd0jY4ruwsJzPBxTjTbseceDdH8Z6VapZ6drV7OJXzEpbr7fStjx18W/AX7MHhuTxX4kjGueJWUCx0hZMpG/YyMOgz+fatDxR4m8TeJPB3iFPgVoMl/p/hnTpbnxN4pjOyw0pFGSvmMMSTnosaknvjAJr4i+LHiafWNbtrV5nlR5TLJ5jZLYPU++a+koZfeHPM8pQhOjUqyfw9Otzc+IvxA8VfFTxXe+OvGt552pahKZJ2/hX0UDsAOAPSuE1fy7ebp3NdEtvKVB8s4x3NY2s2obMkvUHhRWkVY8K9zEvNP8zF6FI3cEevvVSyumhuzk8k4OK2UJuPkl4XvxwKwNZiNjfYUHaehxVcoHoPhHTjasr4yY2BBPp1rsrmEQyF4eN20pt7ZrmPBwM9lbXUgfay4J9xxXVygPaQuh6Aq3Hpgj+tcyV2AX9wBMsxTh13cev+RRdTZdZlH+tTzCffp/MVXmm3wREj+8ufx/+vT38/7NCc8DcOv4/wBasDAztso3JxmVj+QHNQ+G5JpIprrysiaY4JHHHFM8RTmz0VJVYZZXCge5xV3SLSfTtPhtgg2hAT3xQBYa6iZzHNEvHfPJpENqHwts5A77hSrdtKuZI4ye+VwakD2oUGSPb7g5rN7gUtDjjh8Zyz2wKG4t+54LLXUzJM0X72I7SOTmua1Tbp32fWIZceXMA3HbvXovhtrfU9MUDa0br1r1cClKFj9Q4NrRr5fKjL7L/M46RpBP5sTMpHRga+8v+CVvwF8FfFb4TeKdd+IugjUg+qRQ6ddC7mgng2Id3lywurDrypJU8ZBr4p1PwFdSy+bY3rKWyVWQblP+FfV/7DX7eHg39k34Sv8ADHx/8FtZ1RTeyXDaz4cv4XYhuitDNsx+DnNbYzDylhXFRub51h8fHCv2Ku9Nj6gu/wBjnwxaahu0fx94vihkb5Y5dUtJgPbLWe78yauaJ+wX8DNfvIJPiD/wkXiWKNsnTda8RFLRuehjtIrcsPZmYe1cbp//AAVg/ZF1mJpl0fx/bujYkhk8KoxX2yk5X9awPGf/AAV58FaRA9t8J/gd4g1S6wfJu/Et3FZW4P8AeMcTSu30+X61GWZbRjrKOp+bYvBcS4t8tOEj1H/gpddeFfg9/wAE7fFvhvw3pNlpGmyWtrpun6ZpdqlvbxCa4jDJHHGAqkoHPAGcZ5r8QvCum3ni7X7rWlkby4WIGe47V9Q/tv8A7WXx4/aP0F7/AOLPi6I2UE5Gj+HdKXybG0duNwjyS77cgu5ZueCBxXgPgLQZfDGjTW08ZL3Eqljjnp/+qujM5OElFFSyTMMowTjW1b1lb8ESnRb4fIoL+jZ7Vm6tpDEt53I/urz+tden+oY44KnFVvsEE5LTruUcnPGB6V4TkeecBLpN9cSbIYyAByuOlN8W6RpkOmI0kn79mxDz1rur+CxSJrjIiVR09a8+1prnWdeN5IpWNW2RRnoPer5kB2/gOESaELcnJjUSD6Zwf6V0CylbCSMnGBuH+fxrI8CxJBEkchwGG2T2FW7uV490XTOQamO4D7OUTaYyswyJcL9On9KnjzJZOD/Cyn8MEf4VUsfmt5VyCMK2fxx/U1YtZCwmjOMNHwfoQf6VdkBx3iJpL260/R1GDKwLfTcWroT9pg5B3ZPGD2rm9O2al42kuHmwtnbKF/3iK6IRTknynLEk4IOQKwuwJPPlCkXMayZ55GP1pyJaTYDQFfYdBUaMWUEru9zUojSRFwMHvg0AR6uIdTgfT0b5duS3v9K6/wCFNz53hOJ2wdoIbn0Nctf28ZgEkIwki7cf7Va/w7nfTfDV5EOT9rf8M816WXStVsfZ8GYh0sfOH80To7vXWtZsOCyA8AVYTxbYeV5gGCByprFEEt7h2XAYZ6UsfhSe43k3BAK9A1e+52Z+je1qt+4aHhTxrFrGsX/2G3wkCKCfVs1p6jrFzLAyW4EZPtXJ6DEPBkNxFDaySGeTO76VMvjK11B/KljaNyeN1bUdVcwqYipT92T1M3xnp9/rV1a2V4++KJ2nlHbC1gaHqo1BLiPIwLogc57V2GrRmy8Palr7kEi2ZErh/B+lXlhaJbX5hSTyxOYo1w0YkAdQ52/M20g9TgEDIxivCzef7w+O4pcqWES6z1+43JRshijPB5cj9KNgNrk872P5D/8AXS6gMXG09lA/SnSyJhItv3UzXkn58U7qxt77T3ju1GJDgY74/wAiuS1rw/cKyX1hCWjR8EAV2Wofu4UVehXP5/8A6qoyQqLdIOzMSf8AP4Vm9wF0SIQAMp64IFXPEjQw6hC0I4YDdjpnv+tQALZx2Q8nmVm34HYVX16YzbAeqvz/AJ/CrgBc0kFYzEecxH/Gpbc4fjurfyqHTZwJFPmdDycU2/k+x7vmx5f9K1A//9k=;" vertex="1" parent="1">
          <mxGeometry x="360" y="560" width="160" height="160" as="geometry" />
        </mxCell>
      </root>
    </mxGraphModel>
  </diagram>
</mxfile>
